<?xml version="1.0"?>
<svg xmlns="http://www.w3.org/2000/svg" xmlns:xlink="http://www.w3.org/1999/xlink" xmlns:svgjs="http://svgjs.com/svgjs" version="1.1" width="512" height="512" x="0" y="0" viewBox="0 0 511.883 511.883" style="enable-background:new 0 0 512 512" xml:space="preserve" class=""><g><g xmlns="http://www.w3.org/2000/svg"><path d="m444.177 0h-346.353c-8.284 0-15 6.716-15 15v45.235h-15.118c-8.284 0-15 6.716-15 15s6.716 15 15 15h15.118v30.235h-15.118c-8.284 0-15 6.716-15 15s6.716 15 15 15h15.118v30.235h-15.118c-8.284 0-15 6.716-15 15s6.716 15 15 15h15.118v30.235h-15.118c-8.284 0-15 6.716-15 15s6.716 15 15 15h15.118v30.235h-15.118c-8.284 0-15 6.716-15 15s6.716 15 15 15h15.118v30.235h-15.118c-8.284 0-15 6.716-15 15s6.716 15 15 15h15.118v30.235h-15.118c-8.284 0-15 6.716-15 15s6.716 15 15 15h15.118v45.235c0 8.284 6.716 15 15 15h346.353c8.284 0 15-6.716 15-15v-481.88c0-8.284-6.716-15-15-15zm-15 481.883h-316.353v-451.883h316.353z" fill="#3699ff" data-original="#000000" style="" class=""/><path d="m153.401 450.906c7.874 2.569 16.343-1.723 18.917-9.601l8.216-25.149h53.01l8.128 25.11c2.552 7.884 11.01 12.204 18.891 9.651 7.881-2.551 12.203-11.009 9.651-18.89l-46.13-142.51c-1.968-6.079-7.646-10.381-14.288-10.381l-5.2.006c-6.483.007-12.228 4.179-14.241 10.342l-46.553 142.504c-2.574 7.876 1.724 16.345 9.599 18.918zm53.758-116.256 16.672 51.506h-33.498z" fill="#3699ff" data-original="#000000" style="" class=""/><path d="m383.942 384h-22.647v-22.646c0-8.284-6.716-15-15-15s-15 6.716-15 15v22.646h-22.647c-8.284 0-15 6.716-15 15s6.716 15 15 15h22.647v22.647c0 8.284 6.716 15 15 15s15-6.716 15-15v-22.647h22.647c8.284 0 15-6.716 15-15s-6.716-15-15-15z" fill="#3699ff" data-original="#000000" style="" class=""/><path d="m158.059 90.235h30.118c8.284 0 15-6.716 15-15s-6.716-15-15-15h-30.118c-8.284 0-15 6.716-15 15s6.716 15 15 15z" fill="#3699ff" data-original="#000000" style="" class=""/><path d="m158.059 150.471h30.118c8.284 0 15-6.716 15-15s-6.716-15-15-15h-30.118c-8.284 0-15 6.716-15 15s6.716 15 15 15z" fill="#3699ff" data-original="#000000" style="" class=""/><path d="m158.059 210.706h30.118c8.284 0 15-6.716 15-15s-6.716-15-15-15h-30.118c-8.284 0-15 6.716-15 15s6.716 15 15 15z" fill="#3699ff" data-original="#000000" style="" class=""/><path d="m286.059 150.471h97.883c8.284 0 15-6.716 15-15s-6.716-15-15-15h-97.883c-8.284 0-15 6.716-15 15s6.716 15 15 15z" fill="#3699ff" data-original="#000000" style="" class=""/><path d="m286.059 90.235h97.883c8.284 0 15-6.716 15-15s-6.716-15-15-15h-97.883c-8.284 0-15 6.716-15 15s6.716 15 15 15z" fill="#3699ff" data-original="#000000" style="" class=""/><path d="m286.059 210.706h97.883c8.284 0 15-6.716 15-15s-6.716-15-15-15h-97.883c-8.284 0-15 6.716-15 15s6.716 15 15 15z" fill="#3699ff" data-original="#000000" style="" class=""/></g></g></svg>
